<svg width="1440" height="900" viewBox="0 0 1440 900" fill="none" xmlns="http://www.w3.org/2000/svg">
  <rect width="1440" height="900" fill="#071019"/>
  <rect x="80" y="88" width="1280" height="724" rx="18" fill="#0D1623" stroke="#28445F" stroke-width="2"/>
  <rect x="80" y="88" width="1280" height="72" rx="18" fill="#122134"/>
  <circle cx="122" cy="124" r="9" fill="#EF6F6C"/>
  <circle cx="154" cy="124" r="9" fill="#F3B14F"/>
  <circle cx="186" cy="124" r="9" fill="#78D587"/>
  <rect x="238" y="112" width="360" height="24" rx="12" fill="#1A2C43"/>
  <rect x="112" y="204" width="236" height="554" rx="12" fill="#101C2B" stroke="#22384F"/>
  <rect x="386" y="204" width="422" height="252" rx="12" fill="#101C2B" stroke="#22384F"/>
  <rect x="846" y="204" width="402" height="252" rx="12" fill="#101C2B" stroke="#22384F"/>
  <rect x="386" y="496" width="862" height="262" rx="12" fill="#101C2B" stroke="#22384F"/>
  <text x="140" y="258" fill="#8FA4BC" font-family="Consolas, monospace" font-size="22">ERP MODULES</text>
  <rect x="140" y="292" width="168" height="28" rx="6" fill="#173250"/>
  <rect x="140" y="338" width="132" height="28" rx="6" fill="#172A3F"/>
  <rect x="140" y="384" width="184" height="28" rx="6" fill="#172A3F"/>
  <rect x="140" y="430" width="142" height="28" rx="6" fill="#172A3F"/>
  <rect x="140" y="476" width="176" height="28" rx="6" fill="#172A3F"/>
  <rect x="140" y="522" width="118" height="28" rx="6" fill="#172A3F"/>
  <rect x="426" y="254" width="122" height="18" rx="4" fill="#37D5FF"/>
  <rect x="426" y="296" width="312" height="16" rx="4" fill="#49657E"/>
  <rect x="426" y="330" width="252" height="16" rx="4" fill="#49657E"/>
  <rect x="426" y="364" width="338" height="16" rx="4" fill="#49657E"/>
  <rect x="426" y="398" width="204" height="16" rx="4" fill="#49657E"/>
  <text x="888" y="258" fill="#37D5FF" font-family="Consolas, monospace" font-size="24">GET /api/sales-orders</text>
  <rect x="888" y="298" width="288" height="18" rx="4" fill="#49657E"/>
  <rect x="888" y="336" width="210" height="18" rx="4" fill="#49657E"/>
  <rect x="888" y="374" width="248" height="18" rx="4" fill="#49657E"/>
  <path d="M900 555H1200" stroke="#28445F" stroke-width="2"/>
  <path d="M900 620H1200" stroke="#28445F" stroke-width="2"/>
  <path d="M900 685H1200" stroke="#28445F" stroke-width="2"/>
  <rect x="426" y="552" width="108" height="28" rx="6" fill="#F3B14F"/>
  <rect x="560" y="552" width="144" height="28" rx="6" fill="#173250"/>
  <rect x="426" y="616" width="164" height="28" rx="6" fill="#78D587"/>
  <rect x="618" y="616" width="120" height="28" rx="6" fill="#173250"/>
  <rect x="426" y="680" width="138" height="28" rx="6" fill="#37D5FF"/>
  <rect x="592" y="680" width="176" height="28" rx="6" fill="#173250"/>
  <path d="M808 582C855 582 856 582 900 582" stroke="#37D5FF" stroke-width="3"/>
  <path d="M808 646C855 646 856 646 900 646" stroke="#F3B14F" stroke-width="3"/>
  <path d="M808 710C855 710 856 710 900 710" stroke="#78D587" stroke-width="3"/>
  <text x="916" y="580" fill="#BFD0E0" font-family="Consolas, monospace" font-size="18">SQL Server</text>
  <text x="916" y="645" fill="#BFD0E0" font-family="Consolas, monospace" font-size="18">DTO Mapping</text>
  <text x="916" y="710" fill="#BFD0E0" font-family="Consolas, monospace" font-size="18">Integration Logs</text>
  <circle cx="1178" cy="336" r="46" fill="#173250" stroke="#37D5FF" stroke-width="4"/>
  <path d="M1156 336L1170 350L1200 320" stroke="#78D587" stroke-width="8" stroke-linecap="round" stroke-linejoin="round"/>
</svg>
